<svg width="213" height="213" viewBox="0 0 213 213" fill="none" xmlns="http://www.w3.org/2000/svg">
<path fill-rule="evenodd" clip-rule="evenodd" d="M46.2207 125.243C49.4219 135.54 55.2158 144.87 63.0753 152.319C71.9301 160.712 83.0272 166.359 95.0241 168.576C107.021 170.794 119.404 169.488 130.674 164.816C141.944 160.144 151.619 152.306 158.528 142.251C165.437 132.195 169.284 120.353 169.603 108.157C169.923 95.9615 166.702 83.9341 160.329 73.5306C153.956 63.127 144.705 54.7931 133.695 49.537C122.686 44.2809 110.388 42.3279 98.2918 43.9143L98.5519 45.8973C110.265 44.3612 122.173 46.2523 132.834 51.3418C143.495 56.4314 152.453 64.5013 158.623 74.5753C164.794 84.6492 167.913 96.2955 167.604 108.105C167.294 119.915 163.569 131.381 156.879 141.118C150.189 150.855 140.821 158.445 129.908 162.969C118.995 167.493 107.004 168.757 95.3877 166.61C83.7709 164.462 73.0253 158.994 64.4511 150.867C56.8599 143.672 51.2587 134.666 48.1541 124.725L46.2207 125.243Z" fill="#1B91FF"/>
<path d="M63.0753 152.319L58.9478 156.674H58.9478L63.0753 152.319ZM46.2207 125.243L44.6678 119.448L38.638 121.063L40.4912 127.024L46.2207 125.243ZM95.0241 168.576L93.9333 174.476H93.9333L95.0241 168.576ZM130.674 164.816L132.971 170.359L130.674 164.816ZM158.528 142.251L163.473 145.649L158.528 142.251ZM169.603 108.157L175.601 108.315L169.603 108.157ZM160.329 73.5306L165.445 70.3965V70.3965L160.329 73.5306ZM133.695 49.537L136.28 44.1223V44.1223L133.695 49.537ZM98.2918 43.9143L97.5117 37.9652L91.5626 38.7454L92.3428 44.6944L98.2918 43.9143ZM98.5519 45.8973L92.6028 46.6775L93.383 52.6265L99.3321 51.8463L98.5519 45.8973ZM132.834 51.3418L130.249 56.7565V56.7565L132.834 51.3418ZM158.623 74.5753L163.74 71.4412V71.4412L158.623 74.5753ZM167.604 108.105L173.602 108.262L167.604 108.105ZM95.3877 166.61L94.2969 172.51L95.3877 166.61ZM64.4511 150.867L60.3236 155.222L64.4511 150.867ZM48.1541 124.725L53.8813 122.937L52.1644 117.439L46.6012 118.93L48.1541 124.725ZM67.2028 147.964C60.0904 141.223 54.8471 132.78 51.9502 123.462L40.4912 127.024C43.9966 138.3 50.3413 148.516 58.9478 156.674L67.2028 147.964ZM96.1148 162.676C85.2583 160.669 75.2159 155.559 67.2028 147.964L58.9478 156.674C68.6442 165.864 80.7961 172.048 93.9333 174.476L96.1148 162.676ZM128.376 159.274C118.177 163.502 106.971 164.684 96.1148 162.676L93.9333 174.476C107.07 176.905 120.63 175.475 132.971 170.359L128.376 159.274ZM153.582 138.853C147.33 147.953 138.575 155.046 128.376 159.274L132.971 170.359C145.313 165.243 155.907 156.66 163.473 145.649L153.582 138.853ZM163.605 108C163.316 119.037 159.835 129.753 153.582 138.853L163.473 145.649C171.038 134.638 175.251 121.67 175.601 108.315L163.605 108ZM155.213 76.6646C160.979 86.0793 163.895 96.9635 163.605 108L175.601 108.315C175.951 94.9595 172.424 81.7889 165.445 70.3965L155.213 76.6646ZM131.111 54.9516C141.074 59.7081 149.446 67.2499 155.213 76.6646L165.445 70.3965C158.467 59.0041 148.337 49.878 136.28 44.1223L131.111 54.9516ZM99.072 49.8633C110.019 48.4277 121.147 50.1951 131.111 54.9516L136.28 44.1223C124.224 38.3667 110.758 36.228 97.5117 37.9652L99.072 49.8633ZM104.501 45.1171L104.241 43.1341L92.3428 44.6944L92.6028 46.6775L104.501 45.1171ZM135.419 45.9272C123.711 40.3381 110.635 38.2613 97.7717 39.9482L99.3321 51.8463C109.896 50.461 120.634 52.1665 130.249 56.7565L135.419 45.9272ZM163.74 71.4412C156.963 60.3784 147.126 51.5164 135.419 45.9272L130.249 56.7565C139.863 61.3464 147.942 68.6242 153.507 77.7093L163.74 71.4412ZM173.602 108.262C173.942 95.2935 170.516 82.504 163.74 71.4412L153.507 77.7093C159.072 86.7944 161.885 97.2975 161.606 107.948L173.602 108.262ZM161.824 144.516C169.171 133.824 173.262 121.231 173.602 108.262L161.606 107.948C161.327 118.598 157.967 128.939 151.934 137.721L161.824 144.516ZM132.205 168.511C144.19 163.543 154.478 155.209 161.824 144.516L151.934 137.721C145.901 146.502 137.452 153.346 127.61 157.426L132.205 168.511ZM94.2969 172.51C107.054 174.868 120.221 173.479 132.205 168.511L127.61 157.426C117.768 161.506 106.955 162.647 96.4784 160.71L94.2969 172.51ZM60.3236 155.222C69.7395 164.147 81.5398 170.151 94.2969 172.51L96.4784 160.71C86.0019 158.773 76.3112 153.842 68.5786 146.513L60.3236 155.222ZM42.4269 126.514C45.8362 137.431 51.9873 147.321 60.3236 155.222L68.5786 146.513C61.7326 140.024 56.6811 131.902 53.8813 122.937L42.4269 126.514ZM46.6012 118.93L44.6678 119.448L47.7736 131.039L49.707 130.521L46.6012 118.93Z" fill="#1B91FF"/>
<path d="M52.4724 36.0899C61.4543 29.1979 71.6694 24.0899 82.5653 21.0383C83.0167 20.9119 83.2425 20.8487 83.4238 20.9521C83.6052 21.0554 83.6663 21.2836 83.7886 21.74L106.241 105.534C106.363 105.989 106.424 106.217 106.321 106.396C106.217 106.576 105.989 106.637 105.534 106.759L21.74 129.211C21.2836 129.334 21.0554 129.395 20.8752 129.289C20.695 129.184 20.6369 128.957 20.5207 128.503C17.7154 117.541 17.0315 106.14 18.5093 94.9158C20.0305 83.3607 23.8128 72.2184 29.6402 62.125C35.4677 52.0316 43.226 43.1849 52.4724 36.0899Z" stroke="#1B91FF" stroke-width="12"/>
</svg>
