<svg width="22" height="23" viewBox="0 0 22 23" fill="none" xmlns="http://www.w3.org/2000/svg">
<path d="M0 22.0842L1.5538 16.6282C0.594993 15.0311 0.0911831 13.2208 0.0921042 11.3643C0.0948673 5.56045 5.00862 0.837494 11.0461 0.837494C13.9759 0.838379 16.7261 1.93524 18.7948 3.92534C20.8625 5.91545 22.0009 8.56066 22 11.3741C21.9972 17.1788 17.0835 21.9018 11.0461 21.9018C9.21318 21.9009 7.40702 21.4592 5.80717 20.6199L0 22.0842ZM6.07611 18.7139C7.61978 19.5948 9.09344 20.1224 11.0424 20.1233C16.0602 20.1233 20.1478 16.1979 20.1505 11.3723C20.1524 6.53691 16.0841 2.6169 11.0497 2.61513C6.02822 2.61513 1.9434 6.54045 1.94156 11.3652C1.94063 13.335 2.54115 14.8098 3.54969 16.3529L2.62957 19.5824L6.07611 18.7139ZM16.564 13.8767C16.4959 13.767 16.3135 13.7015 16.039 13.5696C15.7655 13.4376 14.4198 12.8011 14.1684 12.7135C13.9179 12.6258 13.7355 12.5816 13.5522 12.8454C13.3698 13.1083 12.8448 13.7015 12.6855 13.8767C12.5262 14.052 12.3659 14.0742 12.0924 13.9423C11.8188 13.8104 10.9364 13.5333 9.89106 12.6365C9.07778 11.9389 8.52792 11.0775 8.36858 10.8137C8.20924 10.5508 8.352 10.4082 8.48832 10.2772C8.61174 10.1595 8.76187 9.97002 8.8991 9.81598C9.03818 9.66371 9.08331 9.55394 9.17542 9.37777C9.2666 9.20248 9.22147 9.04844 9.15239 8.91654C9.08331 8.78552 8.53621 7.49036 8.30872 6.96361C8.08582 6.45104 7.86017 6.52009 7.69254 6.51212L7.16755 6.50327C6.98518 6.50327 6.6886 6.56878 6.43808 6.83259C6.18756 7.09641 5.4802 7.73204 5.4802 9.0272C5.4802 10.3224 6.46111 11.5733 6.59742 11.7485C6.73466 11.9238 8.527 14.5814 11.2726 15.7208C11.9256 15.9917 12.4359 16.1537 12.8329 16.275C13.4887 16.475 14.0855 16.4467 14.5571 16.3794C15.083 16.3042 16.1763 15.7429 16.4047 15.1285C16.6331 14.5133 16.6331 13.9865 16.564 13.8767Z" fill="white"/>
</svg>
